# xmcd
#
# Track frame offsets:
#	182
#	17950
#	42030
#	61357
#	80507
#	102867
#	125220
#	145435
#	167260
#	188932
#	209467
#
# Disc length: 2813 seconds
#
# Revision: 1
# Processed by: cddbd v1.5.1PL2 Copyright (c) Steve Scherf et al.
# Submitted via: EasyCDDAExtractor 7.0.5.1
#
DISCID=9b0afb0b
DTITLE=Various Artist - Soul On The Streets (Vol. 2)
DYEAR=1900
DGENRE=Soul
TTITLE0=Sunnai - Gonna Take My Chances
TTITLE1=Jones Girls - Good To Be Back
TTITLE2=Nu-vision - What Uou Won't Do For Love
TTITLE3=Spirit Level featuring Dan'elle - You Told Me
TTITLE4=Wayne MArshall - Caress
TTITLE5=Affair - Newlife
TTITLE6=Goldsmith - Go With The Flow
TTITLE7=Shirley Jones - Come Closer
TTITLE8=Zene - I Will See You Right
TTITLE9=Trevor Walters - Sapphire Song
TTITLE10=Outro - Outro
EXTD=
EXTT0=
EXTT1=
EXTT2=
EXTT3=
EXTT4=
EXTT5=
EXTT6=
EXTT7=
EXTT8=
EXTT9=
EXTT10=
PLAYORDER=
